999
dxflib 3.3.4.0
  0
SECTION
  2
HEADER
  9
$ACADVER
  1
AC1015
  9
$HANDSEED
  5
FFFF
  9
$DIMADEC
 70
0
  9
$DIMASZ
 40
2.5
  9
$DIMAUNIT
 70
0
  9
$DIMAZIN
 70
2
  9
$DIMDEC
 70
4
  9
$DIMEXE
 40
1.25
  9
$DIMEXO
 40
0.625
  9
$DIMGAP
 40
0.625
  9
$DIMLUNIT
 70
2
  9
$DIMSCALE
 40
1.0
  9
$DIMTSZ
 40
0.0
  9
$DIMTXT
 40
2.5
  9
$DIMZIN
 70
8
  9
$DWGCODEPAGE
  3
ANSI_1252
  9
$INSUNITS
 70
4
  9
$LTSCALE
 40
1.0
  0
ENDSEC
  0
SECTION
  2
TABLES
  0
TABLE
  2
VPORT
  5
8
100
AcDbSymbolTable
 70
1
  0
VPORT
  5
30
100
AcDbSymbolTableRecord
100
AcDbViewportTableRecord
  2
*Active
 70
0
 10
0.0
 20
0.0
 11
1.0
 21
1.0
 12
286.3055555555554861
 22
148.5
 13
0.0
 23
0.0
 14
10.0
 24
10.0
 15
10.0
 25
10.0
 16
0.0
 26
0.0
 36
1.0
 17
0.0
 27
0.0
 37
0.0
 40
297.0
 41
1.92798353909465
 42
50.0
 43
0.0
 44
0.0
 50
0.0
 51
0.0
 71
0
 72
100
 73
1
 74
3
 75
1
 76
1
 77
0
 78
0
281
0
 65
1
110
0.0
120
0.0
130
0.0
111
1.0
121
0.0
131
0.0
112
0.0
122
1.0
132
0.0
 79
0
146
0.0
  0
ENDTAB
  0
TABLE
  2
LTYPE
  5
5
100
AcDbSymbolTable
 70
21
  0
LTYPE
  5
16
100
AcDbSymbolTableRecord
100
AcDbLinetypeTableRecord
  2
CONTINUOUS
 70
0
  3
Solid line
 72
65
 73
0
 40
0.0
  0
LTYPE
  5
31
100
AcDbSymbolTableRecord
100
AcDbLinetypeTableRecord
  2
CENTER2
 70
0
  3
Center (.5x) ___ _ ___ _ ___ _ ___ _ ___ _ ___
 72
65
 73
4
 40
28.5749999999999993
 49
19.0500000000000007
 74
0
 49
-3.1749999999999998
 74
0
 49
3.1749999999999998
 74
0
 49
-3.1749999999999998
 74
0
  0
LTYPE
  5
32
100
AcDbSymbolTableRecord
100
AcDbLinetypeTableRecord
  2
DIVIDEX2
 70
0
  3
Divide (2x) ________  .  .  ________  .  .  _
 72
65
 73
6
 40
63.5
 49
25.3999999999999986
 74
0
 49
-12.6999999999999993
 74
0
 49
0.0
 74
0
 49
-12.6999999999999993
 74
0
 49
0.0
 74
0
 49
-12.6999999999999993
 74
0
  0
LTYPE
  5
33
100
AcDbSymbolTableRecord
100
AcDbLinetypeTableRecord
  2
DOT2
 70
0
  3
Dot (.5x) .....................................
 72
65
 73
2
 40
3.1749999999999998
 49
0.0
 74
0
 49
-3.1749999999999998
 74
0
  0
LTYPE
  5
34
100
AcDbSymbolTableRecord
100
AcDbLinetypeTableRecord
  2
DASHDOT2
 70
0
  3
Dash dot (.5x) _._._._._._._._._._._._._._._.
 72
65
 73
4
 40
12.6999999999999993
 49
6.3499999999999996
 74
0
 49
-3.1749999999999998
 74
0
 49
0.0
 74
0
 49
-3.1749999999999998
 74
0
  0
LTYPE
  5
35
100
AcDbSymbolTableRecord
100
AcDbLinetypeTableRecord
  2
DIVIDE
 70
0
  3
Divide ____ . . ____ . . ____ . . ____ . . ____
 72
65
 73
6
 40
31.75
 49
12.6999999999999993
 74
0
 49
-6.3499999999999996
 74
0
 49
0.0
 74
0
 49
-6.3499999999999996
 74
0
 49
0.0
 74
0
 49
-6.3499999999999996
 74
0
  0
LTYPE
  5
36
100
AcDbSymbolTableRecord
100
AcDbLinetypeTableRecord
  2
DASHDOT
 70
0
  3
Dash dot __ . __ . __ . __ . __ . __ . __ . __
 72
65
 73
4
 40
25.3999999999999986
 49
12.6999999999999993
 74
0
 49
-6.3499999999999996
 74
0
 49
0.0
 74
0
 49
-6.3499999999999996
 74
0
  0
LTYPE
  5
37
100
AcDbSymbolTableRecord
100
AcDbLinetypeTableRecord
  2
BORDER
 70
0
  3
Border __ __ . __ __ . __ __ . __ __ . __ __ .
 72
65
 73
6
 40
44.4500000000000028
 49
12.6999999999999993
 74
0
 49
-6.3499999999999996
 74
0
 49
12.6999999999999993
 74
0
 49
-6.3499999999999996
 74
0
 49
0.0
 74
0
 49
-6.3499999999999996
 74
0
  0
LTYPE
  5
38
100
AcDbSymbolTableRecord
100
AcDbLinetypeTableRecord
  2
DASHDOTX2
 70
0
  3
Dash dot (2x) ____  .  ____  .  ____  .  ___
 72
65
 73
4
 40
50.7999999999999972
 49
25.3999999999999986
 74
0
 49
-12.6999999999999993
 74
0
 49
0.0
 74
0
 49
-12.6999999999999993
 74
0
  0
LTYPE
  5
39
100
AcDbSymbolTableRecord
100
AcDbLinetypeTableRecord
  2
CENTERX2
 70
0
  3
Center (2x) ________  __  ________  __  _____
 72
65
 73
4
 40
101.5999999999999943
 49
63.5
 74
0
 49
-12.6999999999999993
 74
0
 49
12.6999999999999993
 74
0
 49
-12.6999999999999993
 74
0
  0
LTYPE
  5
3A
100
AcDbSymbolTableRecord
100
AcDbLinetypeTableRecord
  2
BORDER2
 70
0
  3
Border (.5x) __.__.__.__.__.__.__.__.__.__.__.
 72
65
 73
6
 40
22.2250000000000014
 49
6.3499999999999996
 74
0
 49
-3.1749999999999998
 74
0
 49
6.3499999999999996
 74
0
 49
-3.1749999999999998
 74
0
 49
0.0
 74
0
 49
-3.1749999999999998
 74
0
  0
LTYPE
  5
3B
100
AcDbSymbolTableRecord
100
AcDbLinetypeTableRecord
  2
BORDERX2
 70
0
  3
Border (2x) ____  ____  .  ____  ____  .  ___
 72
65
 73
6
 40
88.9000000000000057
 49
25.3999999999999986
 74
0
 49
-12.6999999999999993
 74
0
 49
25.3999999999999986
 74
0
 49
-12.6999999999999993
 74
0
 49
0.0
 74
0
 49
-12.6999999999999993
 74
0
  0
LTYPE
  5
14
100
AcDbSymbolTableRecord
100
AcDbLinetypeTableRecord
  2
BYBLOCK
 70
0
  3

 72
65
 73
0
 40
0.0
  0
LTYPE
  5
15
100
AcDbSymbolTableRecord
100
AcDbLinetypeTableRecord
  2
BYLAYER
 70
0
  3

 72
65
 73
0
 40
0.0
  0
LTYPE
  5
3C
100
AcDbSymbolTableRecord
100
AcDbLinetypeTableRecord
  2
DASHED2
 70
0
  3
Dashed (.5x) _ _ _ _ _ _ _ _ _ _ _ _ _ _ _ _ _
 72
65
 73
2
 40
9.5250000000000004
 49
6.3499999999999996
 74
0
 49
-3.1749999999999998
 74
0
  0
LTYPE
  5
3D
100
AcDbSymbolTableRecord
100
AcDbLinetypeTableRecord
  2
CENTER
 70
0
  3
Center ____ _ ____ _ ____ _ ____ _ ____ _ ____
 72
65
 73
4
 40
50.7999999999999972
 49
31.75
 74
0
 49
-6.3499999999999996
 74
0
 49
6.3499999999999996
 74
0
 49
-6.3499999999999996
 74
0
  0
LTYPE
  5
3E
100
AcDbSymbolTableRecord
100
AcDbLinetypeTableRecord
  2
DIVIDE2
 70
0
  3
Divide (.5x) __..__..__..__..__..__..__..__.._
 72
65
 73
6
 40
15.875
 49
6.3499999999999996
 74
0
 49
-3.1749999999999998
 74
0
 49
0.0
 74
0
 49
-3.1749999999999998
 74
0
 49
0.0
 74
0
 49
-3.1749999999999998
 74
0
  0
LTYPE
  5
3F
100
AcDbSymbolTableRecord
100
AcDbLinetypeTableRecord
  2
DASHED
 70
0
  3
Dashed __ __ __ __ __ __ __ __ __ __ __ __ __ _
 72
65
 73
2
 40
19.0500000000000007
 49
12.6999999999999993
 74
0
 49
-6.3499999999999996
 74
0
  0
LTYPE
  5
40
100
AcDbSymbolTableRecord
100
AcDbLinetypeTableRecord
  2
DOTX2
 70
0
  3
Dot (2x) .  .  .  .  .  .  .  .  .  .  .  .  .
 72
65
 73
2
 40
12.6999999999999993
 49
0.0
 74
0
 49
-12.6999999999999993
 74
0
  0
LTYPE
  5
41
100
AcDbSymbolTableRecord
100
AcDbLinetypeTableRecord
  2
DASHEDX2
 70
0
  3
Dashed (2x) ____  ____  ____  ____  ____  ___
 72
65
 73
2
 40
38.1000000000000014
 49
25.3999999999999986
 74
0
 49
-12.6999999999999993
 74
0
  0
LTYPE
  5
42
100
AcDbSymbolTableRecord
100
AcDbLinetypeTableRecord
  2
DOT
 70
0
  3
Dot . . . . . . . . . . . . . . . . . . . . . .
 72
65
 73
2
 40
6.3499999999999996
 49
0.0
 74
0
 49
-6.3499999999999996
 74
0
  0
ENDTAB
  0
TABLE
  2
LAYER
  5
2
100
AcDbSymbolTable
 70
1
  0
LAYER
  5
10
100
AcDbSymbolTableRecord
100
AcDbLayerTableRecord
  2
0
 70
0
 62
7
420
16777215
  6
CONTINUOUS
370
25
390
F
  0
ENDTAB
  0
TABLE
  2
STYLE
  5
3
100
AcDbSymbolTable
 70
1
  0
STYLE
  5
43
100
AcDbSymbolTableRecord
100
AcDbTextStyleTableRecord
  2
Standard
 70
0
 40
0.0
 41
1.0
 50
0.0
 71
0
 42
2.5
  3

  4

1001
ACAD
1000
txt
1071
0
  0
ENDTAB
  0
TABLE
  2
VIEW
  5
6
100
AcDbSymbolTable
 70
0
  0
ENDTAB
  0
TABLE
  2
UCS
  5
7
100
AcDbSymbolTable
 70
0
  0
ENDTAB
  0
TABLE
  2
APPID
  5
9
100
AcDbSymbolTable
 70
1
  0
APPID
  5
12
100
AcDbSymbolTableRecord
100
AcDbRegAppTableRecord
  2
ACAD
 70
0
  0
APPID
  5
44
100
AcDbSymbolTableRecord
100
AcDbRegAppTableRecord
  2
QCAD
 70
0
  0
ENDTAB
  0
TABLE
  2
DIMSTYLE
  5
A
100
AcDbSymbolTable
 70
1
100
AcDbDimStyleTable
 71
0
  0
DIMSTYLE
105
27
100
AcDbSymbolTableRecord
100
AcDbDimStyleTableRecord
  2
Standard
 41
2.5
 42
0.625
 43
3.75
 44
1.25
 70
0
 73
0
 74
0
 77
1
 78
8
140
2.5
141
2.5
143
0.03937007874016
147
0.625
171
3
172
1
271
2
272
2
274
3
278
44
283
0
284
8
340
43
  0
ENDTAB
  0
TABLE
  2
BLOCK_RECORD
  5
1
100
AcDbSymbolTable
 70
1
  0
BLOCK_RECORD
  5
1F
100
AcDbSymbolTableRecord
100
AcDbBlockTableRecord
  2
*Model_Space
340
22
  0
BLOCK_RECORD
  5
1B
100
AcDbSymbolTableRecord
100
AcDbBlockTableRecord
  2
*Paper_Space
340
1E
  0
BLOCK_RECORD
  5
23
100
AcDbSymbolTableRecord
100
AcDbBlockTableRecord
  2
*Paper_Space0
340
26
  0
ENDTAB
  0
ENDSEC
  0
SECTION
  2
BLOCKS
  0
BLOCK
  5
20
100
AcDbEntity
  8
0
100
AcDbBlockBegin
  2
*Model_Space
 70
0
 10
0.0
 20
0.0
 30
0.0
  3
*Model_Space
  1

  0
ENDBLK
  5
21
100
AcDbEntity
  8
0
100
AcDbBlockEnd
  0
BLOCK
  5
1C
100
AcDbEntity
 67
1
  8
0
100
AcDbBlockBegin
  2
*Paper_Space
 70
0
 10
0.0
 20
0.0
 30
0.0
  3
*Paper_Space
  1

  0
ENDBLK
  5
1D
100
AcDbEntity
 67
1
  8
0
100
AcDbBlockEnd
  0
BLOCK
  5
24
100
AcDbEntity
  8
0
100
AcDbBlockBegin
  2
*Paper_Space0
 70
0
 10
0.0
 20
0.0
 30
0.0
  3
*Paper_Space0
  1

  0
ENDBLK
  5
25
100
AcDbEntity
  8
0
100
AcDbBlockEnd
  0
ENDSEC
  0
SECTION
  2
ENTITIES
  0
LINE
  5
45
100
AcDbEntity
100
AcDbLine
  8
0
 62
256
370
-1
  6
BYLAYER
 10
20.6061240989194232
 20
18.1065398900689374
 30
0.0
 11
11.6061240989194232
 21
33.6949971581888263
 31
0.0
  0
LINE
  5
46
100
AcDbEntity
100
AcDbLine
  8
0
 62
256
370
-1
  6
BYLAYER
 10
11.9721495027038607
 20
35.0610225619732745
 30
0.0
 11
54.1111240989194258
 21
59.3899708884731297
 31
0.0
  0
LINE
  5
47
100
AcDbEntity
100
AcDbLine
  8
0
 62
256
370
-1
  6
BYLAYER
 10
21.9721495027038607
 20
17.7405144862844999
 30
0.0
 11
64.1111240989194044
 21
42.0694628127843515
 31
0.0
  0
ARC
  5
48
100
AcDbEntity
  8
0
 62
256
370
-1
  6
BYLAYER
100
AcDbCircle
 10
64.6111240989194044
 20
41.2034374089999034
 30
0.0
 40
1.0
100
AcDbArc
 50
60.0000000000002771
 51
119.9999999999999432
  0
ARC
  5
49
100
AcDbEntity
  8
0
 62
256
370
-1
  6
BYLAYER
100
AcDbCircle
 10
21.4721495027038607
 20
18.6065398900689374
 30
0.0
 40
1.0
100
AcDbArc
 50
210.0000000000000284
 51
300.0
  0
ARC
  5
4A
100
AcDbEntity
  8
0
 62
256
370
-1
  6
BYLAYER
100
AcDbCircle
 10
12.4721495027038607
 20
34.1949971581888263
 30
0.0
 40
1.0
100
AcDbArc
 50
119.9999999999999432
 51
210.0000000000000284
  0
ARC
  5
4B
100
AcDbEntity
  8
0
 62
256
370
-1
  6
BYLAYER
100
AcDbCircle
 10
53.6111240989194258
 20
60.2559962922575636
 30
0.0
 40
1.0
100
AcDbArc
 50
300.0000000000001137
 51
0.0
  0
ARC
  5
4C
100
AcDbEntity
  8
0
 62
256
370
-1
  6
BYLAYER
100
AcDbCircle
 10
75.6111240989194329
 20
60.2559962922575778
 30
0.0
 40
1.0
100
AcDbArc
 50
180.0
 51
239.9999999999998863
  0
LINE
  5
4D
100
AcDbEntity
100
AcDbLine
  8
0
 62
256
370
-1
  6
BYLAYER
 10
25.4663781367638116
 20
29.6883329588306673
 30
0.0
 11
24.0663781367638094
 21
32.1132040894271
 31
0.0
  0
LINE
  5
4E
100
AcDbEntity
100
AcDbLine
  8
0
 62
256
370
-1
  6
BYLAYER
 10
24.066378136763813
 20
32.1132040894271
 30
0.0
 11
32.5534270938513117
 21
37.0132040894270915
 31
0.0
  0
LINE
  5
4F
100
AcDbEntity
100
AcDbLine
  8
0
 62
256
370
-1
  6
BYLAYER
 10
25.4663781367638116
 20
29.6883329588306673
 30
0.0
 11
33.9534270938513103
 21
34.5883329588306623
 31
0.0
  0
LINE
  5
50
100
AcDbEntity
100
AcDbLine
  8
0
 62
256
370
-1
  6
BYLAYER
 10
33.9534270938513103
 20
34.5883329588306623
 30
0.0
 11
32.5534270938513117
 21
37.0132040894270915
 31
0.0
  0
LINE
  5
51
100
AcDbEntity
100
AcDbLine
  8
0
 62
256
370
-1
  6
BYLAYER
 10
39.1495795165579423
 20
37.5883329588306623
 30
0.0
 11
37.7495795165579437
 21
40.0132040894270915
 31
0.0
  0
LINE
  5
52
100
AcDbEntity
100
AcDbLine
  8
0
 62
256
370
-1
  6
BYLAYER
 10
37.7495795165579509
 20
40.0132040894270915
 30
0.0
 11
46.236628473645446
 21
44.9132040894270972
 31
0.0
  0
LINE
  5
53
100
AcDbEntity
100
AcDbLine
  8
0
 62
256
370
-1
  6
BYLAYER
 10
39.1495795165579423
 20
37.5883329588306623
 30
0.0
 11
47.6366284736454446
 21
42.488332958830668
 31
0.0
  0
LINE
  5
54
100
AcDbEntity
100
AcDbLine
  8
0
 62
256
370
-1
  6
BYLAYER
 10
47.6366284736454446
 20
42.488332958830668
 30
0.0
 11
46.236628473645446
 21
44.9132040894270972
 31
0.0
  0
CIRCLE
  5
55
100
AcDbEntity
100
AcDbCircle
  8
0
 62
256
370
-1
  6
BYLAYER
 10
26.3099026153075606
 20
38.0273057045648528
 30
0.0
 40
2.0
  0
CIRCLE
  5
56
100
AcDbEntity
100
AcDbCircle
  8
0
 62
256
370
-1
  6
BYLAYER
 10
31.7099026153075627
 20
28.674231343692913
 30
0.0
 40
2.0
  0
CIRCLE
  5
57
100
AcDbEntity
100
AcDbCircle
  8
0
 62
256
370
-1
  6
BYLAYER
 10
39.9931039951016984
 20
45.9273057045648443
 30
0.0
 40
2.0
  0
CIRCLE
  5
58
100
AcDbEntity
100
AcDbCircle
  8
0
 62
256
370
-1
  6
BYLAYER
 10
45.3931039951016899
 20
36.574231343692901
 30
0.0
 40
2.0
  0
LINE
  5
59
100
AcDbEntity
100
AcDbLine
  8
0
 62
256
370
-1
  6
BYLAYER
 10
55.6111240989193973
 20
109.9138929452572455
 30
0.0
 11
73.6111240989193902
 21
109.9138929452572455
 31
0.0
  0
LINE
  5
5A
100
AcDbEntity
100
AcDbLine
  8
0
 62
256
370
-1
  6
BYLAYER
 10
74.6111240989194187
 20
108.9138929452572597
 30
0.0
 11
74.6111240989193902
 21
60.2559962922575352
 31
0.0
  0
LINE
  5
5B
100
AcDbEntity
100
AcDbLine
  8
0
 62
256
370
-1
  6
BYLAYER
 10
54.6111240989194258
 20
108.9138929452572597
 30
0.0
 11
54.6111240989194258
 21
60.2559962922575636
 31
0.0
  0
ARC
  5
5C
100
AcDbEntity
  8
0
 62
256
370
-1
  6
BYLAYER
100
AcDbCircle
 10
55.6111240989194258
 20
108.9138929452572597
 30
0.0
 40
1.0
100
AcDbArc
 50
90.0000000000000284
 51
180.0000000000000284
  0
ARC
  5
5D
100
AcDbEntity
  8
0
 62
256
370
-1
  6
BYLAYER
100
AcDbCircle
 10
73.6111240989194187
 20
108.9138929452572597
 30
0.0
 40
1.0
100
AcDbArc
 50
359.9999999999999432
 51
90.0000000000000284
  0
LINE
  5
5E
100
AcDbEntity
100
AcDbLine
  8
0
 62
256
370
-1
  6
BYLAYER
 10
63.2111240989193917
 20
99.9138929452572455
 30
0.0
 11
66.0111240989193959
 21
99.9138929452572455
 31
0.0
  0
LINE
  5
5F
100
AcDbEntity
100
AcDbLine
  8
0
 62
256
370
-1
  6
BYLAYER
 10
66.0111240989193959
 20
99.9138929452572455
 30
0.0
 11
66.0111240989193959
 21
90.1138929452572626
 31
0.0
  0
LINE
  5
60
100
AcDbEntity
100
AcDbLine
  8
0
 62
256
370
-1
  6
BYLAYER
 10
63.2111240989193917
 20
99.9138929452572455
 30
0.0
 11
63.2111240989194201
 21
90.1138929452572626
 31
0.0
  0
LINE
  5
61
100
AcDbEntity
100
AcDbLine
  8
0
 62
256
370
-1
  6
BYLAYER
 10
63.2111240989194201
 20
90.1138929452572626
 30
0.0
 11
66.0111240989193959
 21
90.1138929452572626
 31
0.0
  0
LINE
  5
62
100
AcDbEntity
100
AcDbLine
  8
0
 62
256
370
-1
  6
BYLAYER
 10
63.2111240989193917
 20
84.1138929452572484
 30
0.0
 11
66.0111240989193959
 21
84.1138929452572626
 31
0.0
  0
LINE
  5
63
100
AcDbEntity
100
AcDbLine
  8
0
 62
256
370
-1
  6
BYLAYER
 10
66.0111240989193675
 20
84.1138929452572341
 30
0.0
 11
66.0111240989193959
 21
74.313892945257237
 31
0.0
  0
LINE
  5
64
100
AcDbEntity
100
AcDbLine
  8
0
 62
256
370
-1
  6
BYLAYER
 10
63.2111240989193917
 20
84.1138929452572484
 30
0.0
 11
63.2111240989193917
 21
74.3138929452572512
 31
0.0
  0
LINE
  5
65
100
AcDbEntity
100
AcDbLine
  8
0
 62
256
370
-1
  6
BYLAYER
 10
63.2111240989193917
 20
74.3138929452572512
 30
0.0
 11
66.0111240989193959
 21
74.313892945257237
 31
0.0
  0
CIRCLE
  5
66
100
AcDbEntity
100
AcDbCircle
  8
0
 62
256
370
-1
  6
BYLAYER
 10
70.0111240989193959
 20
95.013892945257254
 30
0.0
 40
2.0
  0
CIRCLE
  5
67
100
AcDbEntity
100
AcDbCircle
  8
0
 62
256
370
-1
  6
BYLAYER
 10
59.2111240989193917
 20
95.0138929452572398
 30
0.0
 40
2.0
  0
CIRCLE
  5
68
100
AcDbEntity
100
AcDbCircle
  8
0
 62
256
370
-1
  6
BYLAYER
 10
70.0111240989193675
 20
79.2138929452572427
 30
0.0
 40
2.0
  0
CIRCLE
  5
69
100
AcDbEntity
100
AcDbCircle
  8
0
 62
256
370
-1
  6
BYLAYER
 10
59.2111240989193917
 20
79.2138929452572569
 30
0.0
 40
2.0
  0
LINE
  5
6A
100
AcDbEntity
100
AcDbLine
  8
0
 62
256
370
-1
  6
BYLAYER
 10
117.6161240989193715
 20
33.6949971581888263
 30
0.0
 11
108.6161240989193715
 21
18.1065398900689409
 31
0.0
  0
LINE
  5
6B
100
AcDbEntity
100
AcDbLine
  8
0
 62
256
370
-1
  6
BYLAYER
 10
107.2500986951349518
 20
17.7405144862845141
 30
0.0
 11
65.111124098919376
 21
42.0694628127843799
 31
0.0
  0
LINE
  5
6C
100
AcDbEntity
100
AcDbLine
  8
0
 62
256
370
-1
  6
BYLAYER
 10
117.2500986951349518
 20
35.0610225619733029
 30
0.0
 11
75.1111240989194329
 21
59.3899708884731439
 31
0.0
  0
ARC
  5
6D
100
AcDbEntity
  8
0
 62
256
370
-1
  6
BYLAYER
100
AcDbCircle
 10
116.7500986951349518
 20
34.1949971581888263
 30
0.0
 40
1.0
100
AcDbArc
 50
330.0000000000000568
 51
60.0000000000000355
  0
ARC
  5
6E
100
AcDbEntity
  8
0
 62
256
370
-1
  6
BYLAYER
100
AcDbCircle
 10
107.7500986951349518
 20
18.6065398900689765
 30
0.0
 40
1.0
100
AcDbArc
 50
239.9999999999999432
 51
330.0000000000000568
  0
LINE
  5
6F
100
AcDbEntity
100
AcDbLine
  8
0
 62
256
370
-1
  6
BYLAYER
 10
105.1558700610749923
 20
32.1132040894271
 30
0.0
 11
103.7558700610750151
 21
29.6883329588306744
 31
0.0
  0
LINE
  5
70
100
AcDbEntity
100
AcDbLine
  8
0
 62
256
370
-1
  6
BYLAYER
 10
103.7558700610750151
 20
29.688332958830717
 30
0.0
 11
95.2688211039875199
 21
34.5883329588306765
 31
0.0
  0
LINE
  5
71
100
AcDbEntity
100
AcDbLine
  8
0
 62
256
370
-1
  6
BYLAYER
 10
105.1558700610749923
 20
32.1132040894271
 30
0.0
 11
96.6688211039874972
 21
37.0132040894271199
 31
0.0
  0
LINE
  5
72
100
AcDbEntity
100
AcDbLine
  8
0
 62
256
370
-1
  6
BYLAYER
 10
96.6688211039874972
 20
37.0132040894271199
 30
0.0
 11
95.2688211039875199
 21
34.5883329588306765
 31
0.0
  0
LINE
  5
73
100
AcDbEntity
100
AcDbLine
  8
0
 62
256
370
-1
  6
BYLAYER
 10
91.4726686812808651
 20
40.0132040894271483
 30
0.0
 11
90.0726686812808879
 21
37.5883329588306765
 31
0.0
  0
LINE
  5
74
100
AcDbEntity
100
AcDbLine
  8
0
 62
256
370
-1
  6
BYLAYER
 10
90.0726686812808879
 20
37.5883329588307333
 30
0.0
 11
81.5856197241933927
 21
42.488332958830739
 31
0.0
  0
LINE
  5
75
100
AcDbEntity
100
AcDbLine
  8
0
 62
256
370
-1
  6
BYLAYER
 10
91.4726686812808651
 20
40.0132040894271483
 30
0.0
 11
82.98561972419337
 21
44.9132040894271398
 31
0.0
  0
LINE
  5
76
100
AcDbEntity
100
AcDbLine
  8
0
 62
256
370
-1
  6
BYLAYER
 10
82.98561972419337
 20
44.9132040894271398
 30
0.0
 11
81.5856197241933927
 21
42.488332958830739
 31
0.0
  0
CIRCLE
  5
77
100
AcDbEntity
100
AcDbCircle
  8
0
 62
256
370
-1
  6
BYLAYER
 10
97.5123455825312675
 20
28.6742313436929557
 30
0.0
 40
2.0
  0
CIRCLE
  5
78
100
AcDbEntity
100
AcDbCircle
  8
0
 62
256
370
-1
  6
BYLAYER
 10
102.9123455825312448
 20
38.0273057045648812
 30
0.0
 40
2.0
  0
CIRCLE
  5
79
100
AcDbEntity
100
AcDbCircle
  8
0
 62
256
370
-1
  6
BYLAYER
 10
83.8291442027371403
 20
36.5742313436929294
 30
0.0
 40
2.0
  0
CIRCLE
  5
7A
100
AcDbEntity
100
AcDbCircle
  8
0
 62
256
370
-1
  6
BYLAYER
 10
89.2291442027371176
 20
45.9273057045649011
 30
0.0
 40
2.0
  0
LINE
  5
7B
100
AcDbEntity
100
AcDbLine
  8
0
 62
256
370
-1
  6
BYLAYER
 10
77.1111240989194329
 20
60.3683756171616039
 30
0.0
 11
92.4316321746081826
 21
69.2136750787823587
 31
0.0
  0
ARC
  5
7C
100
AcDbEntity
  8
0
 62
256
370
-1
  6
BYLAYER
100
AcDbCircle
 10
78.3072765216260507
 20
108.7495734636445945
 30
0.0
 40
2.0
100
AcDbArc
 50
119.9999999999999858
 51
210.0
  0
ARC
  5
7D
100
AcDbEntity
  8
0
 62
256
370
-1
  6
BYLAYER
100
AcDbCircle
 10
83.8694543481171166
 20
113.1155988674290285
 30
0.0
 40
1.0
100
AcDbArc
 50
29.9999999999999964
 51
119.9999999999999858
  0
LINE
  5
7E
100
AcDbEntity
100
AcDbLine
  8
0
 62
256
370
-1
  6
BYLAYER
 10
75.6111240989194187
 20
61.2344010209460521
 30
0.0
 11
75.6111240989194329
 21
101.9967967139120333
 31
0.0
  0
LINE
  5
7F
100
AcDbEntity
100
AcDbLine
  8
0
 62
256
370
-1
  6
BYLAYER
 10
92.9316321746081826
 20
110.8420961755327454
 30
0.0
 11
92.9316321746081968
 21
98.9793831748040702
 31
0.0
  0
ARC
  5
80
100
AcDbEntity
  8
0
 62
256
370
-1
  6
BYLAYER
100
AcDbCircle
 10
76.6111240989194044
 20
101.9967967139120191
 30
0.0
 40
1.0
100
AcDbArc
 50
119.9999999999999858
 51
179.99999999999946
  0
ARC
  5
81
100
AcDbEntity
  8
0
 62
256
370
-1
  6
BYLAYER
100
AcDbCircle
 10
91.9316321746081684
 20
110.8420961755327596
 30
0.0
 40
1.0
100
AcDbArc
 50
359.9999999999996021
 51
119.9999999999999858
  0
LINE
  5
82
100
AcDbEntity
100
AcDbLine
  8
0
 62
256
370
-1
  6
BYLAYER
 10
97.9316321746081826
 20
98.0253172519502556
 30
0.0
 11
97.9316321746081826
 21
90.9793831748040702
 31
0.0
  0
CIRCLE
  5
83
100
AcDbEntity
100
AcDbCircle
  8
0
 62
256
370
-1
  6
BYLAYER
 10
84.1111240989194329
 20
101.9967967139120333
 30
0.0
 40
2.0
  0
LINE
  5
84
100
AcDbEntity
100
AcDbLine
  8
0
 62
256
370
-1
  6
BYLAYER
 10
94.3030228509622788
 20
90.9537939428355173
 30
0.0
 11
96.5602414982540864
 21
90.0509064839188085
 31
0.0
  0
LINE
  5
85
100
AcDbEntity
100
AcDbLine
  8
0
 62
256
370
-1
  6
BYLAYER
 10
94.3030228509623072
 20
98.0509064839188085
 30
0.0
 11
96.560241498254058
 21
98.9537939428355031
 31
0.0
  0
LINE
  5
86
100
AcDbEntity
100
AcDbLine
  8
0
 62
256
370
-1
  6
BYLAYER
 10
85.7354797519015648
 20
111.8835480598601464
 30
0.0
 11
84.7354797519015506
 21
113.6155988674290285
 31
0.0
  0
LINE
  5
87
100
AcDbEntity
100
AcDbLine
  8
0
 62
256
370
-1
  6
BYLAYER
 10
92.9316321746081826
 20
90.0253172519502556
 30
0.0
 11
92.9316321746082252
 21
70.07970048256675
 31
0.0
  0
LINE
  5
88
100
AcDbEntity
100
AcDbLine
  8
0
 62
256
370
-1
  6
BYLAYER
 10
80.7713781367638006
 20
112.4816242712134624
 30
0.0
 11
83.3694543481171166
 21
113.9816242712134624
 31
0.0
  0
ARC
  5
89
100
AcDbEntity
  8
0
 62
256
370
-1
  6
BYLAYER
100
AcDbCircle
 10
96.9316321746081826
 20
90.979383174804056
 30
0.0
 40
1.0
100
AcDbArc
 50
248.1985905136485542
 51
0.0000000000003053
  0
LINE
  5
8A
100
AcDbEntity
100
AcDbLine
  8
0
 62
256
370
-1
  6
BYLAYER
 10
82.2713781367638006
 20
109.8835480598601464
 30
0.0
 11
85.7354797519015648
 21
111.8835480598601464
 31
0.0
  0
ARC
  5
8B
100
AcDbEntity
  8
0
 62
256
370
-1
  6
BYLAYER
100
AcDbCircle
 10
96.9316321746081684
 20
98.0253172519502556
 30
0.0
 40
1.0
100
AcDbArc
 50
359.9999999999999432
 51
111.8014094863519148
  0
LINE
  5
8C
100
AcDbEntity
100
AcDbLine
  8
0
 62
256
370
-1
  6
BYLAYER
 10
83.7713781367638006
 20
107.2854718485068304
 30
0.0
 11
82.2713781367638006
 21
109.8835480598601464
 31
0.0
  0
ARC
  5
8D
100
AcDbEntity
  8
0
 62
256
370
-1
  6
BYLAYER
100
AcDbCircle
 10
93.931632174608211
 20
98.9793831748040702
 30
0.0
 40
1.0
100
AcDbArc
 50
179.9999999999999147
 51
291.801409486351929
  0
ARC
  5
8E
100
AcDbEntity
  8
0
 62
256
370
-1
  6
BYLAYER
100
AcDbCircle
 10
93.9316321746081968
 20
90.0253172519502698
 30
0.0
 40
1.0
100
AcDbArc
 50
68.1985905136485542
 51
180.0000000000002842
  0
ARC
  5
8F
100
AcDbEntity
  8
0
 62
256
370
-1
  6
BYLAYER
100
AcDbCircle
 10
76.6111240989194329
 20
61.2344010209460521
 30
0.0
 40
1.0
100
AcDbArc
 50
179.9999999999999147
 51
300.0
  0
ARC
  5
90
100
AcDbEntity
  8
0
 62
256
370
-1
  6
BYLAYER
100
AcDbCircle
 10
91.9316321746081968
 20
70.0797004825667926
 30
0.0
 40
1.0
100
AcDbArc
 50
300.0
 51
0.0000000000003053
  0
LINE
  5
91
100
AcDbEntity
100
AcDbLine
  8
0
 62
256
370
-1
  6
BYLAYER
 10
78.5752257140571686
 20
104.2854718485068304
 30
0.0
 11
77.0752257140571686
 21
106.8835480598601464
 31
0.0
  0
LINE
  5
92
100
AcDbEntity
100
AcDbLine
  8
0
 62
256
370
-1
  6
BYLAYER
 10
77.3072765216260507
 20
110.4816242712134624
 30
0.0
 11
80.7713781367638006
 21
112.4816242712134624
 31
0.0
  0
LINE
  5
93
100
AcDbEntity
100
AcDbLine
  8
0
 62
256
370
-1
  6
BYLAYER
 10
77.0752257140571686
 20
106.8835480598601464
 30
0.0
 11
76.5752257140571828
 21
107.7495734636445945
 31
0.0
  0
LINE
  5
94
100
AcDbEntity
100
AcDbLine
  8
0
 62
256
370
-1
  6
BYLAYER
 10
76.1111240989194187
 20
102.862822117696453
 30
0.0
 11
78.5752257140571686
 21
104.2854718485068304
 31
0.0
  0
LINE
  5
95
100
AcDbEntity
100
AcDbLine
  8
0
 62
256
370
-1
  6
BYLAYER
 10
83.7713781367638006
 20
107.2854718485068304
 30
0.0
 11
91.4316321746081684
 21
111.7081215793171793
 31
0.0
  0
LINE
  5
96
100
AcDbEntity
100
AcDbLine
  8
0
 62
256
370
-1
  6
BYLAYER
 10
4.1854982567153902
 20
43.8117512901356889
 30
0.0
 11
3.1854982567153902
 21
42.0797004825668068
 31
0.0
  0
LINE
  5
97
100
AcDbEntity
100
AcDbLine
  8
0
 62
256
370
-1
  6
BYLAYER
 10
19.5172052067957011
 20
60.9729175016594951
 30
0.0
 11
36.7906160232307045
 21
70.9457258863512834
 31
0.0
  0
LINE
  5
98
100
AcDbEntity
100
AcDbLine
  8
0
 62
256
370
-1
  6
BYLAYER
 10
6.1495998718531402
 20
39.2136750787823729
 30
0.0
 11
3.5515236604998242
 21
40.7136750787823729
 31
0.0
  0
ARC
  5
99
100
AcDbEntity
  8
0
 62
256
370
-1
  6
BYLAYER
100
AcDbCircle
 10
16.6909598807192623
 20
63.959986155370359
 30
0.0
 40
1.0
100
AcDbArc
 50
8.1985905136485595
 51
120.0000000000002984
  0
LINE
  5
9A
100
AcDbEntity
100
AcDbLine
  8
0
 62
256
370
-1
  6
BYLAYER
 10
7.6495998718531544
 20
41.8117512901356747
 30
0.0
 11
4.1854982567153902
 21
43.8117512901356889
 31
0.0
  0
ARC
  5
9B
100
AcDbEntity
  8
0
 62
256
370
-1
  6
BYLAYER
100
AcDbCircle
 10
10.5890019765202013
 20
60.437019116797245
 30
0.0
 40
1.0
100
AcDbArc
 50
119.9999999999999716
 51
231.8014094863518721
  0
LINE
  5
9C
100
AcDbEntity
100
AcDbLine
  8
0
 62
256
370
-1
  6
BYLAYER
 10
9.1495998718531411
 20
44.4098275014890049
 30
0.0
 11
7.6495998718531544
 21
41.8117512901356747
 31
0.0
  0
ARC
  5
9D
100
AcDbEntity
  8
0
 62
256
370
-1
  6
BYLAYER
100
AcDbCircle
 10
11.2627566504437269
 20
57.3619099440170572
 30
0.0
 40
1.0
100
AcDbArc
 50
299.9999999999999432
 51
51.8014094863518793
  0
ARC
  5
9E
100
AcDbEntity
  8
0
 62
256
370
-1
  6
BYLAYER
100
AcDbCircle
 10
19.0172052067956869
 20
61.8389429054439432
 30
0.0
 40
1.0
100
AcDbArc
 50
188.1985905136485542
 51
300.0000000000002842
  0
ARC
  5
9F
100
AcDbEntity
  8
0
 62
256
370
-1
  6
BYLAYER
100
AcDbCircle
 10
52.61112409891944
 20
61.2344010209460521
 30
0.0
 40
1.0
100
AcDbArc
 50
299.9999999999999432
 51
60.0000000000000355
  0
ARC
  5
A0
100
AcDbEntity
  8
0
 62
256
370
-1
  6
BYLAYER
100
AcDbCircle
 10
37.290616023230676
 20
70.0797004825668068
 30
0.0
 40
1.0
100
AcDbArc
 50
60.0000000000000355
 51
120.0000000000002984
  0
LINE
  5
A1
100
AcDbEntity
100
AcDbLine
  8
0
 62
256
370
-1
  6
BYLAYER
 10
14.3457522945597802
 20
41.4098275014890049
 30
0.0
 11
12.8457522945597802
 21
38.8117512901356747
 31
0.0
  0
LINE
  5
A2
100
AcDbEntity
100
AcDbLine
  8
0
 62
256
370
-1
  6
BYLAYER
 10
9.6137014869909052
 20
37.2136750787823729
 30
0.0
 11
6.1495998718531402
 21
39.2136750787823729
 31
0.0
  0
LINE
  5
A3
100
AcDbEntity
100
AcDbLine
  8
0
 62
256
370
-1
  6
BYLAYER
 10
12.8457522945597802
 20
38.8117512901356747
 30
0.0
 11
12.345752294559766
 21
37.945725886351255
 31
0.0
  0
LINE
  5
A4
100
AcDbEntity
100
AcDbLine
  8
0
 62
256
370
-1
  6
BYLAYER
 10
16.8098539096975301
 20
39.9871777706786276
 30
0.0
 11
14.3457522945597802
 21
41.4098275014890049
 31
0.0
  0
LINE
  5
A5
100
AcDbEntity
100
AcDbLine
  8
0
 62
256
370
-1
  6
BYLAYER
 10
9.1495998718531411
 20
44.4098275014890049
 30
0.0
 11
1.4893458340087937
 21
48.8324772322993681
 31
0.0
  0
LINE
  5
A6
100
AcDbEntity
100
AcDbLine
  8
0
 62
256
370
-1
  6
BYLAYER
 10
53.1111240989194542
 20
62.1004264247305002
 30
0.0
 11
37.7906160232306902
 21
70.9457258863512266
 31
0.0
  0
ARC
  5
A7
100
AcDbEntity
  8
0
 62
256
370
-1
  6
BYLAYER
100
AcDbCircle
 10
10.6137014869908839
 20
38.9457258863512408
 30
0.0
 40
2.0
100
AcDbArc
 50
239.9999999999999716
 51
330.0
  0
ARC
  5
A8
100
AcDbEntity
  8
0
 62
256
370
-1
  6
BYLAYER
100
AcDbCircle
 10
4.0515236604998313
 20
41.5797004825667926
 30
0.0
 40
1.0
100
AcDbArc
 50
149.9999999999999716
 51
239.9999999999999716
  0
LINE
  5
A9
100
AcDbEntity
100
AcDbLine
  8
0
 62
256
370
-1
  6
BYLAYER
 10
53.1111240989194542
 20
60.3683756171616039
 30
0.0
 11
17.8098539096975088
 21
39.9871777706786276
 31
0.0
  0
LINE
  5
AA
100
AcDbEntity
100
AcDbLine
  8
0
 62
256
370
-1
  6
BYLAYER
 10
1.4893458340087724
 20
50.5645280398682644
 30
0.0
 11
11.762756650443734
 21
56.4958845402326091
 31
0.0
  0
ARC
  5
AB
100
AcDbEntity
  8
0
 62
256
370
-1
  6
BYLAYER
100
AcDbCircle
 10
17.3098539096975372
 20
40.8532031744630473
 30
0.0
 40
1.0
100
AcDbArc
 50
239.9999999999999716
 51
299.9999999999994316
  0
ARC
  5
AC
100
AcDbEntity
  8
0
 62
256
370
-1
  6
BYLAYER
100
AcDbCircle
 10
1.9893458340087724
 20
49.698502636083802
 30
0.0
 40
1.0
100
AcDbArc
 50
119.9999999999995595
 51
239.9999999999999716
  0
LINE
  5
AD
100
AcDbEntity
100
AcDbLine
  8
0
 62
256
370
-1
  6
BYLAYER
 10
10.0890019765201941
 20
61.3030445205817074
 30
0.0
 11
16.1909598807192552
 21
64.8260115591547788
 31
0.0
  0
CIRCLE
  5
AE
100
AcDbEntity
100
AcDbCircle
  8
0
 62
256
370
-1
  6
BYLAYER
 10
13.5598539096975088
 20
47.3483937028463657
 30
0.0
 40
2.0
  0
LINE
  5
AF
100
AcDbEntity
100
AcDbLine
  8
0
 62
256
370
-1
  6
BYLAYER
 10
18.0274254674903034
 20
61.6963383204526394
 30
0.0
 11
17.6807396200246458
 21
64.1025907403616486
 31
0.0
  0
LINE
  5
B0
100
AcDbEntity
100
AcDbLine
  8
0
 62
256
370
-1
  6
BYLAYER
 10
11.8811457133950356
 20
58.1477820499110152
 30
0.0
 11
9.9706129135689139
 21
59.6511470109032729
 31
0.0
  0
ARC
  5
B1
100
AcDbEntity
  8
0
 62
256
370
-1
  6
BYLAYER
100
AcDbCircle
 10
99.9123942881413569
 20
19.8532031744630864
 30
0.0
 40
1.0
100
AcDbArc
 50
0.0
 51
59.9999999999994245
  0
ARC
  5
B2
100
AcDbEntity
  8
0
 62
256
370
-1
  6
BYLAYER
100
AcDbCircle
 10
99.9123942881413143
 20
2.1626042512215626
 30
0.0
 40
1.0
100
AcDbArc
 50
239.9999999999995168
 51
0.0
  0
LINE
  5
B3
100
AcDbEntity
100
AcDbLine
  8
0
 62
256
370
-1
  6
BYLAYER
 10
85.8127381456312577
 20
3.3748412903069926
 30
0.0
 11
79.7107802414308964
 21
6.897808328879325
 31
0.0
  0
CIRCLE
  5
B4
100
AcDbEntity
100
AcDbCircle
  8
0
 62
256
370
-1
  6
BYLAYER
 10
96.1623942881413285
 20
13.3580126460797466
 30
0.0
 40
2.0
  0
LINE
  5
B5
100
AcDbEntity
100
AcDbLine
  8
0
 62
256
370
-1
  6
BYLAYER
 10
81.502923978305617
 20
10.0530707995499462
 30
0.0
 11
79.5923911784795735
 21
8.5497058385577169
 31
0.0
  0
LINE
  5
B6
100
AcDbEntity
100
AcDbLine
  8
0
 62
256
370
-1
  6
BYLAYER
 10
87.6492037324009203
 20
6.5045145290083148
 30
0.0
 11
87.3025178849353694
 21
4.0982621090994122
 31
0.0
  0
LINE
  5
B7
100
AcDbEntity
100
AcDbLine
  8
0
 62
256
370
-1
  6
BYLAYER
 10
103.9123942881413143
 20
7.0079037128423032
 30
0.0
 11
105.9123942881413285
 21
7.0079037128422961
 31
0.0
  0
LINE
  5
B8
100
AcDbEntity
100
AcDbLine
  8
0
 62
256
370
-1
  6
BYLAYER
 10
81.3845349153543225
 20
11.7049683092283523
 30
0.0
 11
64.111124098919376
 21
21.6777766939201264
 31
0.0
  0
LINE
  5
B9
100
AcDbEntity
100
AcDbLine
  8
0
 62
256
370
-1
  6
BYLAYER
 10
106.9123942881413427
 20
11.0079037128423103
 30
0.0
 11
106.9123942881413285
 21
8.0079037128423174
 31
0.0
  0
ARC
  5
BA
100
AcDbEntity
  8
0
 62
256
370
-1
  6
BYLAYER
100
AcDbCircle
 10
80.2107802414308679
 20
7.763833732663759
 30
0.0
 40
1.0
100
AcDbArc
 50
128.1985905136485542
 51
240.0000000000002842
  0
LINE
  5
BB
100
AcDbEntity
100
AcDbLine
  8
0
 62
256
370
-1
  6
BYLAYER
 10
103.9123942881413569
 20
11.0079037128423529
 30
0.0
 11
103.9123942881413143
 21
7.0079037128423032
 31
0.0
  0
ARC
  5
BC
100
AcDbEntity
  8
0
 62
256
370
-1
  6
BYLAYER
100
AcDbCircle
 10
86.3127381456300355
 20
4.2408666940907302
 30
0.0
 40
1.0
100
AcDbArc
 50
239.9999999999999432
 51
351.8014094863518721
  0
LINE
  5
BD
100
AcDbEntity
100
AcDbLine
  8
0
 62
256
370
-1
  6
BYLAYER
 10
100.9123942881413285
 20
11.0079037128423103
 30
0.0
 11
103.9123942881413569
 21
11.0079037128423529
 31
0.0
  0
ARC
  5
BE
100
AcDbEntity
  8
0
 62
256
370
-1
  6
BYLAYER
100
AcDbCircle
 10
88.6389834717063252
 20
6.3619099440170181
 30
0.0
 40
1.0
100
AcDbArc
 50
59.9999999999999289
 51
171.8014094863518721
  0
ARC
  5
BF
100
AcDbEntity
  8
0
 62
256
370
-1
  6
BYLAYER
100
AcDbCircle
 10
80.884534915354152
 20
10.8389429054438047
 30
0.0
 40
1.0
100
AcDbArc
 50
308.1985905136485258
 51
60.0000000000002345
  0
ARC
  5
C0
100
AcDbEntity
  8
0
 62
256
370
-1
  6
BYLAYER
100
AcDbCircle
 10
64.6111240989194329
 20
40.2344010209460521
 30
0.0
 40
1.0
100
AcDbArc
 50
59.9999999999999289
 51
180.0000000000000284
  0
ARC
  5
C1
100
AcDbEntity
  8
0
 62
256
370
-1
  6
BYLAYER
100
AcDbCircle
 10
64.6111240989194044
 20
22.5438020977045603
 30
0.0
 40
1.0
100
AcDbArc
 50
180.0000000000000284
 51
240.0000000000002842
  0
LINE
  5
C2
100
AcDbEntity
100
AcDbLine
  8
0
 62
256
370
-1
  6
BYLAYER
 10
100.9123942881413143
 20
17.0079037128422961
 30
0.0
 11
103.9123942881413569
 21
17.0079037128423245
 31
0.0
  0
LINE
  5
C3
100
AcDbEntity
100
AcDbLine
  8
0
 62
256
370
-1
  6
BYLAYER
 10
106.9123942881413285
 20
15.0079037128423103
 30
0.0
 11
106.9123942881413427
 21
11.0079037128423103
 31
0.0
  0
LINE
  5
C4
100
AcDbEntity
100
AcDbLine
  8
0
 62
256
370
-1
  6
BYLAYER
 10
103.9123942881413569
 20
17.0079037128423245
 30
0.0
 11
104.9123942881413569
 21
17.0079037128423103
 31
0.0
  0
LINE
  5
C5
100
AcDbEntity
100
AcDbLine
  8
0
 62
256
370
-1
  6
BYLAYER
 10
100.9123942881413285
 20
19.8532031744630508
 30
0.0
 11
100.9123942881413143
 21
17.0079037128422961
 31
0.0
  0
LINE
  5
C6
100
AcDbEntity
100
AcDbLine
  8
0
 62
256
370
-1
  6
BYLAYER
 10
100.9123942881413285
 20
11.0079037128423103
 30
0.0
 11
100.9123942881413001
 21
2.162604251221584
 31
0.0
  0
LINE
  5
C7
100
AcDbEntity
100
AcDbLine
  8
0
 62
256
370
-1
  6
BYLAYER
 10
63.6111240989194258
 20
40.2344010209460663
 30
0.0
 11
63.61112409891944
 21
22.5438020977045888
 31
0.0
  0
ARC
  5
C8
100
AcDbEntity
  8
0
 62
256
370
-1
  6
BYLAYER
100
AcDbCircle
 10
104.9123942881413569
 20
15.0079037128423103
 30
0.0
 40
2.0
100
AcDbArc
 50
0.0
 51
90.0
  0
ARC
  5
C9
100
AcDbEntity
  8
0
 62
256
370
-1
  6
BYLAYER
100
AcDbCircle
 10
105.9123942881413569
 20
8.0079037128423245
 30
0.0
 40
1.0
100
AcDbArc
 50
270.0
 51
0.0
  0
LINE
  5
CA
100
AcDbEntity
100
AcDbLine
  8
0
 62
256
370
-1
  6
BYLAYER
 10
65.1111240989194329
 20
41.1004264247305144
 30
0.0
 11
100.4123942881413569
 21
20.7192285782474848
 31
0.0
  0
LINE
  5
CB
100
AcDbEntity
100
AcDbLine
  8
0
 62
256
370
-1
  6
BYLAYER
 10
99.4123942881413001
 20
1.2965788474371287
 30
0.0
 11
89.1389834717063536
 21
7.2279353478014805
 31
0.0
  0
ENDSEC
  0
SECTION
  2
OBJECTS
  0
DICTIONARY
  5
C
100
AcDbDictionary
280
0
281
1
  3
ACAD_GROUP
350
D
  3
ACAD_LAYOUT
350
1A
  3
ACAD_MLINESTYLE
350
17
  3
ACAD_PLOTSETTINGS
350
19
  3
ACAD_PLOTSTYLENAME
350
E
  3
AcDbVariableDictionary
350
CC
  3
QCAD_OBJECTS
350
CD
  0
DICTIONARY
  5
D
100
AcDbDictionary
280
0
281
1
  0
ACDBDICTIONARYWDFLT
  5
E
100
AcDbDictionary
281
1
  3
Normal
350
F
100
AcDbDictionaryWithDefault
340
F
  0
ACDBPLACEHOLDER
  5
F
  0
DICTIONARY
  5
17
100
AcDbDictionary
280
0
281
1
  3
Standard
350
18
  0
MLINESTYLE
  5
18
100
AcDbMlineStyle
  2
STANDARD
 70
0
  3

 62
256
 51
90.0
 52
90.0
 71
2
 49
0.5
 62
256
  6
BYLAYER
 49
-0.5
 62
256
  6
BYLAYER
  0
DICTIONARY
  5
19
100
AcDbDictionary
280
0
281
1
  0
DICTIONARY
  5
1A
100
AcDbDictionary
281
1
  3
Layout1
350
1E
  3
Layout2
350
26
  3
Model
350
22
  0
LAYOUT
  5
1E
100
AcDbPlotSettings
  1

  2
none_device
  4

  6

 40
0.0
 41
0.0
 42
0.0
 43
0.0
 44
0.0
 45
0.0
 46
0.0
 47
0.0
 48
0.0
 49
0.0
140
0.0
141
0.0
142
1.0
143
1.0
 70
688
 72
0
 73
0
 74
5
  7

 75
16
147
1.0
148
0.0
149
0.0
100
AcDbLayout
  1
Layout1
 70
1
 71
1
 10
0.0
 20
0.0
 11
420.0
 21
297.0
 12
0.0
 22
0.0
 32
0.0
 14
100000000000000000000.0
 24
100000000000000000000.0
 34
100000000000000000000.0
 15
-100000000000000000000.0
 25
-100000000000000000000.0
 35
-100000000000000000000.0
146
0.0
 13
0.0
 23
0.0
 33
0.0
 16
1.0
 26
0.0
 36
0.0
 17
0.0
 27
1.0
 37
0.0
 76
0
330
1B
  0
LAYOUT
  5
22
100
AcDbPlotSettings
  1

  2
none_device
  4

  6

 40
0.0
 41
0.0
 42
0.0
 43
0.0
 44
0.0
 45
0.0
 46
0.0
 47
0.0
 48
0.0
 49
0.0
140
0.0
141
0.0
142
1.0
143
1.0
 70
1712
 72
0
 73
0
 74
0
  7

 75
0
147
1.0
148
0.0
149
0.0
100
AcDbLayout
  1
Model
 70
1
 71
0
 10
0.0
 20
0.0
 11
12.0
 21
9.0
 12
0.0
 22
0.0
 32
0.0
 14
0.0
 24
0.0
 34
0.0
 15
0.0
 25
0.0
 35
0.0
146
0.0
 13
0.0
 23
0.0
 33
0.0
 16
1.0
 26
0.0
 36
0.0
 17
0.0
 27
1.0
 37
0.0
 76
0
330
1F
  0
LAYOUT
  5
26
100
AcDbPlotSettings
  1

  2
none_device
  4

  6

 40
0.0
 41
0.0
 42
0.0
 43
0.0
 44
0.0
 45
0.0
 46
0.0
 47
0.0
 48
0.0
 49
0.0
140
0.0
141
0.0
142
1.0
143
1.0
 70
688
 72
0
 73
0
 74
5
  7

 75
16
147
1.0
148
0.0
149
0.0
100
AcDbLayout
  1
Layout2
 70
1
 71
2
 10
0.0
 20
0.0
 11
12.0
 21
9.0
 12
0.0
 22
0.0
 32
0.0
 14
0.0
 24
0.0
 34
0.0
 15
0.0
 25
0.0
 35
0.0
146
0.0
 13
0.0
 23
0.0
 33
0.0
 16
1.0
 26
0.0
 36
0.0
 17
0.0
 27
1.0
 37
0.0
 76
0
330
23
  0
DICTIONARY
  5
CC
100
AcDbDictionary
281
1
  3
DIMASSOC
350
CF
  3
HIDETEXT
350
CE
  0
DICTIONARYVAR
  5
CE
100
DictionaryVariables
280
0
  1
2
  0
DICTIONARYVAR
  5
CF
100
DictionaryVariables
280
0
  1
1
  0
DICTIONARY
  5
CD
100
AcDbDictionary
281
1
  3
Grid/DisplayGrid00
350
D0
  3
Grid/DisplayGrid01
350
D1
  3
Grid/DisplayGrid02
350
D2
  3
Grid/DisplayGrid03
350
D3
  3
Grid/GridSpacingX00
350
D4
  3
Grid/GridSpacingX01
350
D5
  3
Grid/GridSpacingX02
350
D6
  3
Grid/GridSpacingX03
350
D7
  3
Grid/GridSpacingY00
350
D8
  3
Grid/GridSpacingY01
350
D9
  3
Grid/GridSpacingY02
350
DA
  3
Grid/GridSpacingY03
350
DB
  3
Grid/IsometricGrid00
350
DC
  3
Grid/IsometricGrid01
350
DD
  3
Grid/IsometricGrid02
350
DE
  3
Grid/IsometricGrid03
350
DF
  3
Grid/IsometricProjection00
350
E0
  3
Grid/IsometricProjection01
350
E1
  3
Grid/IsometricProjection02
350
E2
  3
Grid/IsometricProjection03
350
E3
  3
Grid/MetaGridSpacingX00
350
E4
  3
Grid/MetaGridSpacingX01
350
E5
  3
Grid/MetaGridSpacingX02
350
E6
  3
Grid/MetaGridSpacingX03
350
E7
  3
Grid/MetaGridSpacingY00
350
E8
  3
Grid/MetaGridSpacingY01
350
E9
  3
Grid/MetaGridSpacingY02
350
EA
  3
Grid/MetaGridSpacingY03
350
EB
  3
MultiPageSettings/Columns
350
EC
  3
MultiPageSettings/GlueMarginsBottom
350
ED
  3
MultiPageSettings/GlueMarginsLeft
350
EE
  3
MultiPageSettings/GlueMarginsRight
350
EF
  3
MultiPageSettings/GlueMarginsTop
350
F0
  3
MultiPageSettings/PrintCropMarks
350
F1
  3
MultiPageSettings/Rows
350
F2
  3
PageSettings/OffsetX
350
F3
  3
PageSettings/OffsetY
350
F4
  3
PageSettings/PageOrientation
350
F5
  3
PageSettings/PaperHeight
350
F6
  3
PageSettings/PaperWidth
350
F7
  3
PageSettings/Scale
350
F8
  3
PageSettings/ShowPaperBorders
350
F9
  3
UnitSettings/PaperUnit
350
FA
  0
XRECORD
  5
D0
330
CD
100
AcDbXrecord
280
1
290
1
  0
XRECORD
  5
D1
330
CD
100
AcDbXrecord
280
1
290
1
  0
XRECORD
  5
D2
330
CD
100
AcDbXrecord
280
1
290
1
  0
XRECORD
  5
D3
330
CD
100
AcDbXrecord
280
1
290
1
  0
XRECORD
  5
D4
330
CD
100
AcDbXrecord
280
1
1000
auto
  0
XRECORD
  5
D5
330
CD
100
AcDbXrecord
280
1
1000
auto
  0
XRECORD
  5
D6
330
CD
100
AcDbXrecord
280
1
1000
auto
  0
XRECORD
  5
D7
330
CD
100
AcDbXrecord
280
1
1000
auto
  0
XRECORD
  5
D8
330
CD
100
AcDbXrecord
280
1
1000
auto
  0
XRECORD
  5
D9
330
CD
100
AcDbXrecord
280
1
1000
auto
  0
XRECORD
  5
DA
330
CD
100
AcDbXrecord
280
1
1000
auto
  0
XRECORD
  5
DB
330
CD
100
AcDbXrecord
280
1
1000
auto
  0
XRECORD
  5
DC
330
CD
100
AcDbXrecord
280
1
290
0
  0
XRECORD
  5
DD
330
CD
100
AcDbXrecord
280
1
290
0
  0
XRECORD
  5
DE
330
CD
100
AcDbXrecord
280
1
290
0
  0
XRECORD
  5
DF
330
CD
100
AcDbXrecord
280
1
290
0
  0
XRECORD
  5
E0
330
CD
100
AcDbXrecord
280
1
 90
0
  0
XRECORD
  5
E1
330
CD
100
AcDbXrecord
280
1
 90
0
  0
XRECORD
  5
E2
330
CD
100
AcDbXrecord
280
1
 90
0
  0
XRECORD
  5
E3
330
CD
100
AcDbXrecord
280
1
 90
0
  0
XRECORD
  5
E4
330
CD
100
AcDbXrecord
280
1
1000
auto
  0
XRECORD
  5
E5
330
CD
100
AcDbXrecord
280
1
1000
auto
  0
XRECORD
  5
E6
330
CD
100
AcDbXrecord
280
1
1000
auto
  0
XRECORD
  5
E7
330
CD
100
AcDbXrecord
280
1
1000
auto
  0
XRECORD
  5
E8
330
CD
100
AcDbXrecord
280
1
1000
auto
  0
XRECORD
  5
E9
330
CD
100
AcDbXrecord
280
1
1000
auto
  0
XRECORD
  5
EA
330
CD
100
AcDbXrecord
280
1
1000
auto
  0
XRECORD
  5
EB
330
CD
100
AcDbXrecord
280
1
1000
auto
  0
XRECORD
  5
EC
330
CD
100
AcDbXrecord
280
1
 90
1
  0
XRECORD
  5
ED
330
CD
100
AcDbXrecord
280
1
 40
10.0
  0
XRECORD
  5
EE
330
CD
100
AcDbXrecord
280
1
 40
10.0
  0
XRECORD
  5
EF
330
CD
100
AcDbXrecord
280
1
 40
10.0
  0
XRECORD
  5
F0
330
CD
100
AcDbXrecord
280
1
 40
10.0
  0
XRECORD
  5
F1
330
CD
100
AcDbXrecord
280
1
290
0
  0
XRECORD
  5
F2
330
CD
100
AcDbXrecord
280
1
 90
1
  0
XRECORD
  5
F3
330
CD
100
AcDbXrecord
280
1
 40
0.0
  0
XRECORD
  5
F4
330
CD
100
AcDbXrecord
280
1
 40
0.0
  0
XRECORD
  5
F5
330
CD
100
AcDbXrecord
280
1
1000
Portrait
  0
XRECORD
  5
F6
330
CD
100
AcDbXrecord
280
1
 40
297.0
  0
XRECORD
  5
F7
330
CD
100
AcDbXrecord
280
1
 40
210.0
  0
XRECORD
  5
F8
330
CD
100
AcDbXrecord
280
1
1000
1:1
  0
XRECORD
  5
F9
330
CD
100
AcDbXrecord
280
1
290
1
  0
XRECORD
  5
FA
330
CD
100
AcDbXrecord
280
1
 90
4
  0
ENDSEC
  0
EOF
